<?xml version="1.0" encoding="UTF-8" standalone="no"?>
<svg
   xmlns:dc="http://purl.org/dc/elements/1.1/"
   xmlns:cc="http://creativecommons.org/ns#"
   xmlns:rdf="http://www.w3.org/1999/02/22-rdf-syntax-ns#"
   xmlns:svg="http://www.w3.org/2000/svg"
   xmlns="http://www.w3.org/2000/svg"
   xmlns:sodipodi="http://sodipodi.sourceforge.net/DTD/sodipodi-0.dtd"
   xmlns:inkscape="http://www.inkscape.org/namespaces/inkscape"
   version="1.1"
   id="Your_Icon"
   x="0px"
   y="0px"
   width="35"
   height="35"
   viewBox="0 0 35 35"
   enable-background="new 0 0 100 100"
   xml:space="preserve"
   inkscape:version="0.48.4 r9939"
   sodipodi:docname="boxzoom-active.svg"><metadata
     id="metadata15"><rdf:RDF><cc:Work
         rdf:about=""><dc:format>image/svg+xml</dc:format><dc:type
           rdf:resource="http://purl.org/dc/dcmitype/StillImage" /><dc:title /></cc:Work></rdf:RDF></metadata><defs
     id="defs13" /><sodipodi:namedview
     pagecolor="#ffffff"
     bordercolor="#666666"
     borderopacity="1"
     objecttolerance="10"
     gridtolerance="10"
     guidetolerance="10"
     inkscape:pageopacity="0"
     inkscape:pageshadow="2"
     inkscape:window-width="1920"
     inkscape:window-height="1031"
     id="namedview11"
     showgrid="false"
     inkscape:zoom="7.68"
     inkscape:cx="12.360725"
     inkscape:cy="22.960837"
     inkscape:window-x="0"
     inkscape:window-y="25"
     inkscape:window-maximized="1"
     inkscape:current-layer="Your_Icon" /><g
     id="g3"
     transform="matrix(0.1694799,0,0,0.1694799,11.497672,11.09179)"><path
       d="m 37.149,10.063 c -14.936,0 -27.086,12.151 -27.086,27.086 0,14.936 12.151,27.086 27.086,27.086 14.935,0 27.085,-12.15 27.085,-27.086 0,-14.935 -12.15,-27.086 -27.085,-27.086 z m 18.55,30.738 H 40.801 v 14.898 c 0,0.968 -0.785,1.753 -1.752,1.753 h -3.8 c -0.968,0 -1.752,-0.785 -1.752,-1.753 V 40.801 H 18.599 c -0.968,0 -1.752,-0.784 -1.752,-1.752 v -3.8 c 0,-0.968 0.785,-1.752 1.752,-1.752 H 33.496 V 18.599 c 0,-0.968 0.785,-1.752 1.752,-1.752 h 3.8 c 0.968,0 1.752,0.785 1.752,1.752 v 14.898 h 14.898 c 0.968,0 1.752,0.785 1.752,1.752 v 3.8 c 10e-4,0.968 -0.783,1.752 -1.751,1.752 z"
       id="path5"
       inkscape:connector-curvature="0"
       style="fill:none" /><path
       d="M 99.337,89.071 68.052,57.786 C 72.115,51.728 74.298,44.607 74.298,37.149 74.298,27.226 70.434,17.897 63.417,10.88 56.401,3.864 47.072,0 37.149,0 27.226,0 17.897,3.864 10.88,10.881 3.863,17.898 0,27.227 0,37.149 c 0,9.922 3.864,19.252 10.881,26.269 7.017,7.017 16.345,10.88 26.269,10.88 7.541,0 14.737,-2.233 20.838,-6.385 l 31.255,31.253 c 1.055,1.056 2.995,0.827 4.332,-0.511 l 5.252,-5.252 c 1.337,-1.337 1.566,-3.277 0.51,-4.332 z M 37.149,64.235 c -14.936,0 -27.086,-12.15 -27.086,-27.086 0,-14.935 12.151,-27.086 27.086,-27.086 14.935,0 27.085,12.151 27.085,27.086 0,14.936 -12.15,27.086 -27.085,27.086 z"
       id="path7"
       inkscape:connector-curvature="0"
       style="fill:#000000" /><path
       d="M 55.699,33.497 H 40.801 V 18.599 c 0,-0.968 -0.785,-1.752 -1.752,-1.752 h -3.8 c -0.968,0 -1.752,0.785 -1.752,1.752 V 33.497 H 18.599 c -0.968,0 -1.752,0.785 -1.752,1.752 v 3.8 c 0,0.968 0.785,1.752 1.752,1.752 h 14.897 v 14.898 c 0,0.968 0.785,1.753 1.752,1.753 h 3.8 c 0.968,0 1.752,-0.785 1.752,-1.753 V 40.801 h 14.898 c 0.968,0 1.752,-0.784 1.752,-1.752 v -3.8 c 10e-4,-0.967 -0.783,-1.752 -1.751,-1.752 z"
       id="path9"
       inkscape:connector-curvature="0"
       style="fill:#000000" /></g><rect
     style="fill:none;stroke:#bc0b0b;stroke-width:2.04800009999999988;stroke-miterlimit:3;stroke-opacity:1;stroke-dasharray:6.14400029000000014, 2.04800009999999988;stroke-dashoffset:0"
     id="rect2992"
     width="29.121773"
     height="29.063478"
     x="3.2719212"
     y="3.3015416" /><path
     style="fill:#000000;stroke:none;stroke-width:0.26041666000000002;stroke-miterlimit:3;stroke-opacity:1;stroke-dasharray:0.78125000000000000, 0.26041667000000002;stroke-dashoffset:0"
     d="m 23.988701,25.217402 -2.681136,-2.681136 -0.664154,0.347277 c -2.435494,1.273484 -5.268418,0.810059 -7.267304,-1.188827 -1.161617,-1.161617 -1.744548,-2.589985 -1.744548,-4.2747 0,-1.70851 0.567483,-3.127577 1.736607,-4.342618 1.152665,-1.197937 2.734488,-1.856575 4.448289,-1.852175 1.68653,0.0043 3.079754,0.569439 4.265973,1.730334 2.007839,1.964973 2.480876,4.844857 1.200997,7.311766 l -0.337009,0.64957 2.741009,2.743235 c 1.507554,1.508778 2.741009,2.78919 2.741009,2.845359 0,0.240764 -1.226735,1.393051 -1.483054,1.393051 -0.184859,0 -1.157937,-0.882395 -2.956679,-2.681136 z M 19.04408,21.847971 c 0.98884,-0.263164 1.995273,-0.997279 2.591713,-1.890456 1.539218,-2.304997 0.710358,-5.46263 -1.762855,-6.715791 -0.684998,-0.347083 -0.874187,-0.382249 -2.056483,-0.382249 -1.133433,0 -1.394841,0.04399 -2.018229,0.339606 -0.909236,0.431172 -1.759635,1.282411 -2.197288,2.199457 -0.298366,0.625188 -0.341775,0.881522 -0.341775,2.018229 0,1.126473 0.0432,1.38664 0.320277,1.929039 1.082115,2.118286 3.223249,3.098674 5.46464,2.502165 l 0,0 z"
     id="path3825"
     inkscape:connector-curvature="0" /></svg>