<?xml version="1.0" encoding="UTF-8" standalone="no"?>
<!-- Created with Inkscape (http://www.inkscape.org/) -->

<svg
   xmlns:dc="http://purl.org/dc/elements/1.1/"
   xmlns:cc="http://creativecommons.org/ns#"
   xmlns:rdf="http://www.w3.org/1999/02/22-rdf-syntax-ns#"
   xmlns:svg="http://www.w3.org/2000/svg"
   xmlns="http://www.w3.org/2000/svg"
   xmlns:sodipodi="http://sodipodi.sourceforge.net/DTD/sodipodi-0.dtd"
   xmlns:inkscape="http://www.inkscape.org/namespaces/inkscape"
   width="25"
   height="25"
   id="svg2"
   version="1.1"
   inkscape:version="0.48.4 r9939"
   sodipodi:docname="cluster.svg"
   inkscape:export-filename="/home/gtraub/projects/idigbio-portal/public/img/cluster-active.png"
   inkscape:export-xdpi="90"
   inkscape:export-ydpi="90">
  <defs
     id="defs4" />
  <sodipodi:namedview
     id="base"
     pagecolor="#ffffff"
     bordercolor="#666666"
     borderopacity="1.0"
     inkscape:pageopacity="0.0"
     inkscape:pageshadow="2"
     inkscape:zoom="5.9962655"
     inkscape:cx="47.766017"
     inkscape:cy="28.803178"
     inkscape:document-units="px"
     inkscape:current-layer="layer1"
     showgrid="false"
     inkscape:snap-global="true"
     inkscape:window-width="1920"
     inkscape:window-height="1031"
     inkscape:window-x="1920"
     inkscape:window-y="25"
     inkscape:window-maximized="1" />
  <metadata
     id="metadata7">
    <rdf:RDF>
      <cc:Work
         rdf:about="">
        <dc:format>image/svg+xml</dc:format>
        <dc:type
           rdf:resource="http://purl.org/dc/dcmitype/StillImage" />
        <dc:title></dc:title>
      </cc:Work>
    </rdf:RDF>
  </metadata>
  <g
     inkscape:label="Layer 1"
     inkscape:groupmode="layer"
     id="layer1"
     transform="translate(0,-1027.3622)">
    <path
       style="fill:none;stroke:#000000;stroke-width:0.5;stroke-linecap:butt;stroke-linejoin:miter;stroke-miterlimit:4;stroke-opacity:1;stroke-dasharray:none"
       d="m 2.9529798,1042.8364 7.7845122,0.1024"
       id="path3977"
       inkscape:connector-curvature="0" />
    <path
       style="fill:none;stroke:#000000;stroke-width:0.5;stroke-linecap:butt;stroke-linejoin:miter;stroke-miterlimit:4;stroke-opacity:1;stroke-dasharray:none"
       d="m 15.904783,1032.2498 -1.683045,7.2371 0,0"
       id="path3949"
       inkscape:connector-curvature="0" />
    <path
       style="fill:none;stroke:#000000;stroke-width:0.5;stroke-linecap:butt;stroke-linejoin:miter;stroke-miterlimit:4;stroke-opacity:1;stroke-dasharray:none"
       d="m 9.5092088,1030.2301 2.6928742,8.7519"
       id="path3957"
       inkscape:connector-curvature="0" />
    <path
       style="fill:none;stroke:#000000;stroke-width:0.41899681;stroke-linecap:butt;stroke-linejoin:miter;stroke-miterlimit:4;stroke-opacity:1;stroke-dasharray:none"
       d="m 4.0732348,1031.2084 6.8229132,8.9081"
       id="path3959"
       inkscape:connector-curvature="0" />
    <path
       style="fill:none;stroke:#000000;stroke-width:0.5;stroke-linecap:butt;stroke-linejoin:miter;stroke-miterlimit:4;stroke-opacity:1;stroke-dasharray:none"
       d="m 2.5245688,1036.0367 7.9103162,5.8065"
       id="path3961"
       inkscape:connector-curvature="0" />
    <path
       style="fill:none;stroke:#000000;stroke-width:0.5;stroke-linecap:butt;stroke-linejoin:miter;stroke-miterlimit:4;stroke-opacity:1;stroke-dasharray:none"
       d="m 6.5638788,1048.912 4.8808332,-4.6284"
       id="path3965"
       inkscape:connector-curvature="0" />
    <path
       style="fill:none;stroke:#000000;stroke-width:0.5;stroke-linecap:butt;stroke-linejoin:miter;stroke-miterlimit:4;stroke-opacity:1;stroke-dasharray:none"
       d="m 13.632672,1050.5109 -0.08415,-5.3858"
       id="path3967"
       inkscape:connector-curvature="0" />
    <path
       style="fill:none;stroke:#000000;stroke-width:0.5;stroke-linecap:butt;stroke-linejoin:miter;stroke-miterlimit:4;stroke-opacity:1;stroke-dasharray:none"
       d="m 20.785616,1048.407 -4.880833,-3.9551"
       id="path3969"
       inkscape:connector-curvature="0" />
    <path
       style="fill:none;stroke:#000000;stroke-width:0.5;stroke-linecap:butt;stroke-linejoin:miter;stroke-miterlimit:4;stroke-opacity:1;stroke-dasharray:none"
       d="m 22.552814,1041.9273 -6.311422,0"
       id="path3971"
       inkscape:connector-curvature="0" />
    <path
       style="fill:none;stroke:#000000;stroke-width:0.5;stroke-linecap:butt;stroke-linejoin:miter;stroke-miterlimit:4;stroke-opacity:1;stroke-dasharray:none"
       d="m 20.364854,1036.0367 -4.544223,4.0393"
       id="path3973"
       inkscape:connector-curvature="0" />
    <path
       sodipodi:type="arc"
       style="fill:#4d4d4d;fill-opacity:1;stroke:#000000;stroke-width:0.42897714999999997;stroke-miterlimit:4;stroke-opacity:1;stroke-dasharray:none"
       id="path3787"
       sodipodi:cx="9.0706882"
       sodipodi:cy="10.319807"
       sodipodi:rx="2.864428"
       sodipodi:ry="2.864428"
       d="m 11.935116,10.319807 a 2.864428,2.864428 0 1 1 -5.7288558,0 2.864428,2.864428 0 1 1 5.7288558,0 z"
       transform="matrix(-1.5758415,0,0,1.5758415,27.708234,1025.9033)" />
    <path
       sodipodi:type="arc"
       style="fill:#aa0000;fill-opacity:1;stroke:#000000;stroke-width:0.27599998999999997;stroke-miterlimit:4;stroke-opacity:1;stroke-dasharray:none"
       id="path3873"
       sodipodi:cx="17.966515"
       sodipodi:cy="20.161243"
       sodipodi:rx="1.3043605"
       sodipodi:ry="1.3043605"
       d="m 19.270875,20.161243 a 1.3043605,1.3043605 0 1 1 -2.608721,0 1.3043605,1.3043605 0 1 1 2.608721,0 z"
       transform="matrix(-1,0,0,1,24.320012,1028.372)" />
    <path
       transform="matrix(-1,0,0,1,21.419719,1010.2745)"
       sodipodi:type="arc"
       style="fill:#aa0000;fill-opacity:1;stroke:#000000;stroke-width:0.27599998999999997;stroke-miterlimit:4;stroke-opacity:1;stroke-dasharray:none"
       id="path3873-4"
       sodipodi:cx="17.966515"
       sodipodi:cy="20.161243"
       sodipodi:rx="1.3043605"
       sodipodi:ry="1.3043605"
       d="m 19.270875,20.161243 a 1.3043605,1.3043605 0 1 1 -2.608721,0 1.3043605,1.3043605 0 1 1 2.608721,0 z" />
    <path
       transform="matrix(-1,0,0,1,20.406931,1015.7913)"
       sodipodi:type="arc"
       style="fill:#aa0000;fill-opacity:1;stroke:#000000;stroke-width:0.27599998999999997;stroke-miterlimit:4;stroke-opacity:1;stroke-dasharray:none"
       id="path3873-8"
       sodipodi:cx="17.966515"
       sodipodi:cy="20.161243"
       sodipodi:rx="1.3043605"
       sodipodi:ry="1.3043605"
       d="m 19.270875,20.161243 a 1.3043605,1.3043605 0 1 1 -2.608721,0 1.3043605,1.3043605 0 1 1 2.608721,0 z" />
    <path
       transform="matrix(-1,0,0,1,20.827693,1022.6077)"
       sodipodi:type="arc"
       style="fill:#aa0000;fill-opacity:1;stroke:#000000;stroke-width:0.27599998999999997;stroke-miterlimit:4;stroke-opacity:1;stroke-dasharray:none"
       id="path3873-3"
       sodipodi:cx="17.966515"
       sodipodi:cy="20.161243"
       sodipodi:rx="1.3043605"
       sodipodi:ry="1.3043605"
       d="m 19.270875,20.161243 a 1.3043605,1.3043605 0 1 1 -2.608721,0 1.3043605,1.3043605 0 1 1 2.608721,0 z" />
    <path
       transform="matrix(-1,0,0,1,31.599186,1030.2655)"
       sodipodi:type="arc"
       style="fill:#aa0000;fill-opacity:1;stroke:#000000;stroke-width:0.27599998999999997;stroke-miterlimit:4;stroke-opacity:1;stroke-dasharray:none"
       id="path3873-32"
       sodipodi:cx="17.966515"
       sodipodi:cy="20.161243"
       sodipodi:rx="1.3043605"
       sodipodi:ry="1.3043605"
       d="m 19.270875,20.161243 a 1.3043605,1.3043605 0 1 1 -2.608721,0 1.3043605,1.3043605 0 1 1 2.608721,0 z" />
    <path
       transform="matrix(-1,0,0,1,38.752131,1028.2457)"
       sodipodi:type="arc"
       style="fill:#aa0000;fill-opacity:1;stroke:#000000;stroke-width:0.27599998999999997;stroke-miterlimit:4;stroke-opacity:1;stroke-dasharray:none"
       id="path3873-321"
       sodipodi:cx="17.966515"
       sodipodi:cy="20.161243"
       sodipodi:rx="1.3043605"
       sodipodi:ry="1.3043605"
       d="m 19.270875,20.161243 a 1.3043605,1.3043605 0 1 1 -2.608721,0 1.3043605,1.3043605 0 1 1 2.608721,0 z" />
    <path
       transform="matrix(-1,0,0,1,40.603481,1021.6819)"
       sodipodi:type="arc"
       style="fill:#aa0000;fill-opacity:1;stroke:#000000;stroke-width:0.27599998999999997;stroke-miterlimit:4;stroke-opacity:1;stroke-dasharray:none"
       id="path3873-7"
       sodipodi:cx="17.966515"
       sodipodi:cy="20.161243"
       sodipodi:rx="1.3043605"
       sodipodi:ry="1.3043605"
       d="m 19.270875,20.161243 a 1.3043605,1.3043605 0 1 1 -2.608721,0 1.3043605,1.3043605 0 1 1 2.608721,0 z" />
    <path
       transform="matrix(-1,0,0,1,38.331369,1015.8753)"
       sodipodi:type="arc"
       style="fill:#aa0000;fill-opacity:1;stroke:#000000;stroke-width:0.27599998999999997;stroke-miterlimit:4;stroke-opacity:1;stroke-dasharray:none"
       id="path3873-6"
       sodipodi:cx="17.966515"
       sodipodi:cy="20.161243"
       sodipodi:rx="1.3043605"
       sodipodi:ry="1.3043605"
       d="m 19.270875,20.161243 a 1.3043605,1.3043605 0 1 1 -2.608721,0 1.3043605,1.3043605 0 1 1 2.608721,0 z" />
    <path
       transform="matrix(-1,0,0,1,27.644028,1010.153)"
       sodipodi:type="arc"
       style="fill:#aa0000;fill-opacity:1;stroke:#000000;stroke-width:0.27599998999999997;stroke-miterlimit:4;stroke-opacity:1;stroke-dasharray:none"
       id="path3873-9"
       sodipodi:cx="17.966515"
       sodipodi:cy="20.161243"
       sodipodi:rx="1.3043605"
       sodipodi:ry="1.3043605"
       d="m 19.270875,20.161243 a 1.3043605,1.3043605 0 1 1 -2.608721,0 1.3043605,1.3043605 0 1 1 2.608721,0 z" />
    <path
       transform="matrix(-1,0,0,1,33.95545,1011.9202)"
       sodipodi:type="arc"
       style="fill:#aa0000;fill-opacity:1;stroke:#000000;stroke-width:0.27599998999999997;stroke-miterlimit:4;stroke-opacity:1;stroke-dasharray:none"
       id="path3873-0"
       sodipodi:cx="17.966515"
       sodipodi:cy="20.161243"
       sodipodi:rx="1.3043605"
       sodipodi:ry="1.3043605"
       d="m 19.270875,20.161243 a 1.3043605,1.3043605 0 1 1 -2.608721,0 1.3043605,1.3043605 0 1 1 2.608721,0 z" />
  </g>
</svg>
