<?xml version="1.0" encoding="UTF-8" standalone="no"?>
<!-- Created with Inkscape (http://www.inkscape.org/) -->

<svg
   xmlns:dc="http://purl.org/dc/elements/1.1/"
   xmlns:cc="http://creativecommons.org/ns#"
   xmlns:rdf="http://www.w3.org/1999/02/22-rdf-syntax-ns#"
   xmlns:svg="http://www.w3.org/2000/svg"
   xmlns="http://www.w3.org/2000/svg"
   version="1.1"
   width="35"
   height="35"
   viewBox="0 0 35 35"
   id="Your_Icon"
   xml:space="preserve"><metadata
     id="metadata15"><rdf:RDF><cc:Work
         rdf:about=""><dc:format>image/svg+xml</dc:format><dc:type
           rdf:resource="http://purl.org/dc/dcmitype/StillImage" /><dc:title></dc:title></cc:Work></rdf:RDF></metadata><defs
     id="defs13" /><g
     transform="matrix(0.26229896,0,0,0.26229896,4.9853943,4.9950618)"
     id="Your_Icon-5"><g
       transform="translate(6.5569782,7.624887)"
       id="g7"><g
         id="g9"><rect
           width="2"
           height="39.432999"
           x="29.759001"
           y="32.094002"
           transform="matrix(0.9764,0.2158,-0.2158,0.9764,11.9051,-5.4169)"
           id="rect11" /></g><g
         id="g13"><rect
           width="2"
           height="47.02"
           x="49"
           y="47.542"
           id="rect15" /></g><g
         id="g17"><rect
           width="39.432999"
           height="2"
           x="49.523998"
           y="50.811001"
           transform="matrix(0.216,0.9764,-0.9764,0.216,104.8702,-26.9876)"
           id="rect19" /></g><g
         id="g21"><path
           d="M 0.528,98.447 19.173,46.991 35.018,31.145 50,46.127 64.981,31.146 80.827,46.992 80.903,47.201 99.471,98.448 73.5,72.476 50,95.976 26.5,72.476 0.528,98.447 z M 26.5,69.647 50,93.147 73.5,69.647 94.528,90.675 79.098,48.091 64.981,33.974 50,48.956 35.019,33.974 20.902,48.091 5.472,90.676 26.5,69.647 z"
           id="path23" /></g></g><g
       transform="translate(6.5569782,7.624887)"
       id="g33"><polygon
         points="50,94.561 26.5,71.061 35.019,32.56 50,47.542 "
         id="polygon35" /></g><g
       transform="translate(6.5569782,7.624887)"
       id="g37"><polygon
         points="97,94.561 73.5,71.061 64.981,32.56 79.963,47.542 "
         id="polygon39" /></g><path
       d="m 56.779601,-10.069919 c -4.778141,0 -8.652697,3.8739606 -8.652697,8.6527007 0,3.849012 2.51353,7.1098901 5.989458,8.2326922 l 2.506403,37.6679281 h 0.784773 L 59.468991,6.8071576 c 3.461672,-1.1311208 5.963918,-4.3848694 5.963918,-8.2249698 -6.28e-4,-4.7781462 -3.874556,-8.6521068 -8.653308,-8.6521068 z m 1.163207,14.6065209 c 1.487565,-1.3830071 2.328774,-3.81930889 2.031744,-6.4783892 -0.296447,-2.6596742 -1.653909,-4.8500278 -3.410005,-5.8706492 2.902068,-0.3148577 5.559367,2.1838188 5.940166,5.5884635 0.379611,3.4040499 -1.662224,6.4272986 -4.561905,6.7605749 z"
       id="path3"
       style="fill:#000000" /><g
       transform="matrix(0.48224626,0,0,0.48224626,164.71708,-13.642289)"
       id="Your_Icon-8"><path
         d="m -286.50617,49.669588 v -6 c 0,-2.961 -0.359,-3.5 -3.5,-3.5 h -26.5 v -26.5 c 0,-2.961 -0.48,-3.5 -3.5,-3.5 h -6 c -3.1,0 -4.5,0.539 -4.5,3.5 v 26.5 h -27.5 c -2.961,0 -4.5,0.48 -4.5,3.5 v 6 c 0,3.1 1.539,4.5 4.5,4.5 h 27.5 v 27.5 c 0,3.02 1.461,4.5 4.5,4.5 h 6 c 2.961,0 3.5,-1.359 3.5,-4.5 v -27.5 h 26.5 c 3.02,0 3.5,-1.461 3.5,-4.5 z"
         id="path5"
         style="fill:#000000" /></g></g></svg>